# xmcd
#
# Track frame offsets:
#	750
#	16197
#	33972
#	54547
#	73852
#	91917
#	108972
#	128072
#	143609
#	160947
#	177859
#	200577
#	219922
#	237747
#	257734
#	274284
#	292822
#	311334
#	325492
#
# Disc length: 4630 seconds
#
# Revision: 1
# Processed by: cddbd v1.4PL0 Copyright (c) Steve Scherf et al.
# Submitted via: MusicWizard 6.0.2
#
DISCID=10120c13
DTITLE=Various Artist - BODY and SOUL CD2
DYEAR=2001
DGENRE=RnB
TTITLE0=INESSA and DANTE THOMAS - GUILTY (Original Radio Version)
TTITLE1=DESTINY'S CHILD - EMOTION (Album Version)
TTITLE2=SADE - BY YOUR SIDE (Album Version)
TTITLE3=SARAH CONNOR - FROM SARAH WITH LOVE (Urban Remix)
TTITLE4=LINDA CARRIERE - JUST FRIENDS (Director's Cut)
TTITLE5=AYMAN FEAT. KEITH SWEAT - DIESER BRIEF (Englische Version)
TTITLE6=JON SECADA - YOU SHOULD BE MINE (Album Version)
TTITLE7=LUTHER VANDROSS - TAKE YOU OUT (Album Version)
TTITLE8=JOE - STUTTER (Album Version)
TTITLE9=JAHEIM - COULD IT BE (Album Version)
TTITLE10=R. KELLY - A WOMAN'S THREAT (Radio Edit)
TTITLE11=JILL SCOTT - THE WAY (Album Version)
TTITLE12=MACY GRAY - I TRY (Album Version)
TTITLE13=ALL SAINTS - PURE SHORES (5" Version)
TTITLE14=MELANIE THORNTON - FOREVER (Album Version)
TTITLE15=DES'REE - WHAT'S YOUR SIGN? (Album Version)
TTITLE16=WYCLEF JEAN - WISH YOU WERE HERE (Album Version)
TTITLE17=HIL ST SOUL - UNTIL YOU COME BACK TO ME (Acoustic Version)
TTITLE18=GEORGE MICHAEL - WAITING FOR THAT DAY (Album Version)
EXTD=YEAR: 2001
EXTT0=
EXTT1=
EXTT2=
EXTT3=
EXTT4=
EXTT5=
EXTT6=
EXTT7=
EXTT8=
EXTT9=
EXTT10=
EXTT11=
EXTT12=
EXTT13=
EXTT14=
EXTT15=
EXTT16=
EXTT17=
EXTT18=
PLAYORDER=
